<?xml version="1.0" encoding="utf-8"?>
<!-- Generator: Adobe Illustrator 22.0.0, SVG Export Plug-In . SVG Version: 6.00 Build 0)  -->
<svg version="1.1" id="Layer_1" xmlns="http://www.w3.org/2000/svg" xmlns:xlink="http://www.w3.org/1999/xlink" x="0px" y="0px"
	 viewBox="0 0 1080 1080" style="enable-background:new 0 0 1080 1080;" xml:space="preserve">
<style type="text/css">
	.st0{fill:#57AB60;}
</style>
<g>
	<g>
		<path d="M134.6,521.3c-0.5,5.6-0.7,9.6-0.7,12.1c0,9.9,1.4,19.6,4.3,29.1c2.9,9.5,6.8,17.3,11.8,23.6c5.1,6.4,11.4,11.4,19,15.1
			c7.6,3.7,15.5,5.5,23.8,5.5c6.1,0,12-1,17.5-3.1s10.1-4.9,13.7-8.6c4.1-4,7.6-10.4,10.6-19.2l3.6,1.2c-3,13.3-9.3,23.4-19.1,30.2
			c-9.7,6.8-22.7,10.2-38.9,10.2c-14,0-26.1-2.2-36.1-6.7c-10-4.4-18.5-11.3-25.5-20.5c-9.7-12.9-14.5-28.7-14.5-47.5
			c0-25.7,9.2-45.8,27.5-60.4c13.3-10.6,28.6-15.9,45.7-15.9c9.1,0,17.6,1.6,25.3,4.9c7.8,3.2,14.3,8,19.7,14.1
			c8.3,9.6,12.5,21.6,12.5,35.9H134.6z M209.2,514.6c-0.8-11.4-2.9-20.2-6.3-26.3c-3.1-5.6-7.2-10-12.3-13.3
			c-5.1-3.2-10.6-4.9-16.3-4.9c-9.8,0-18.3,4.2-25.6,12.7c-7.3,8.4-11.7,19-13,31.8H209.2z"/>
		<path d="M268,614.3v-48.4h2.7c3.2,11.9,7.2,21.3,11.9,28.4c8.8,12.9,19,19.3,30.7,19.3c7.2,0,13.4-2.2,18.6-6.5
			c5.7-4.8,8.5-11.6,8.5-20.4c0-7.2-2-13.5-6.1-18.8c-2.3-2.8-5.1-5.5-8.6-7.9s-9.3-5.8-17.5-10.1c-14.3-7.6-23.9-14-28.7-19.2
			c-6.8-7.3-10.2-15.7-10.2-25.3c0-10.3,3.4-19.1,10.3-26.5c7.9-8.4,18.3-12.7,31.3-12.7c5.8,0,11.2,1,16.2,3.1l5.8,2.6
			c1.8,0.7,3.4,1,4.8,1c2.2,0,4.2-1.7,6.2-5.1h3.4l1.9,38.8h-3.6c-1.3-5.5-2.6-9.9-4-13.2c-1.4-3.3-3.4-6.5-6.1-9.6
			c-3.5-4.3-7.6-7.7-12.3-10.2c-4.7-2.5-9.3-3.7-13.8-3.7c-6.4,0-11.8,2.3-16.3,6.9c-4.5,4.6-6.7,10.3-6.7,17c0,5.6,2,10.6,6.1,15.1
			c4,4.5,10.3,8.6,18.7,12.4l18.1,8.2c10.8,4.9,18.9,11,24.2,18.3c5.3,7.3,8,15.9,8,25.8c0,12-3.9,21.9-11.6,29.8
			c-8.9,9.1-20.3,13.7-34.2,13.7c-7.5,0-15.2-1.5-22.9-4.4c-5-1.9-8-3-9.1-3.3c-1-0.3-2.3-0.4-3.9-0.4c-4,0-7,1.7-9.1,5.1H268z"/>
		<path d="M599.5,468.9H643v6.5h-43.4V575c0,12,2,20.5,6.1,25.7c2.2,2.9,5,5.1,8.5,6.7c3.5,1.6,7.3,2.4,11.4,2.4
			c5.1,0,9.4-1.1,12.8-3.2c3.4-2.1,7.2-6,11.3-11.5l2.6,2.2c-3.8,6.8-9,11.9-15.8,15.2c-6.8,3.3-15.3,5-25.4,5
			c-13.5,0-23.3-2.6-29.4-7.9c-3.3-2.7-5.5-6-6.5-9.8c-1-3.8-1.5-10.7-1.5-20.6V475.4h-18.3v-2.7c7.4-2.4,14.3-7,20.5-13.9
			c3.8-4.2,6.8-8.4,9.1-12.6c2.3-4.2,4.5-9.5,6.5-16.2l1.7-5.6h6.4V468.9z"/>
		<path d="M682.3,521.3c-0.5,5.6-0.7,9.6-0.7,12.1c0,9.9,1.4,19.6,4.3,29.1c2.9,9.5,6.8,17.3,11.8,23.6c5.1,6.4,11.4,11.4,19,15.1
			c7.6,3.7,15.5,5.5,23.8,5.5c6.1,0,12-1,17.5-3.1s10.1-4.9,13.7-8.6c4.1-4,7.6-10.4,10.6-19.2l3.6,1.2c-3,13.3-9.3,23.4-19.1,30.2
			c-9.7,6.8-22.7,10.2-38.9,10.2c-14,0-26.1-2.2-36.1-6.7c-10-4.4-18.5-11.3-25.5-20.5c-9.7-12.9-14.5-28.7-14.5-47.5
			c0-25.7,9.2-45.8,27.5-60.4c13.3-10.6,28.6-15.9,45.7-15.9c9.1,0,17.6,1.6,25.3,4.9c7.8,3.2,14.3,8,19.7,14.1
			c8.3,9.6,12.5,21.6,12.5,35.9H682.3z M756.9,514.6c-0.8-11.4-2.9-20.2-6.3-26.3c-3.1-5.6-7.2-10-12.3-13.3
			c-5.1-3.2-10.6-4.9-16.3-4.9c-9.8,0-18.3,4.2-25.6,12.7c-7.3,8.4-11.7,19-13,31.8H756.9z"/>
		<path d="M855,374v117.1c4-4.9,7.5-8.7,10.6-11.4s6.8-5.1,11.1-7.2c8.3-4.1,17.8-6.2,28.4-6.2c13.5,0,24.6,2.7,33.4,8
			c6.3,4,10.6,8.9,12.9,14.6c2.3,5.8,3.5,14.4,3.5,25.9v49.9l0.2,13c0,7.7,0.5,13.4,1.4,17c0.9,3.6,2.7,6.6,5.3,9
			c3.2,3.1,9.1,5.4,17.6,7v3.6h-75.5v-3.6c6-0.8,10.3-1.8,12.9-2.9s4.9-3.1,6.9-5.8c2-2.8,3.5-6.7,4.3-11.6s1.2-12.1,1.2-21.7v-54.1
			c0-8.2-0.6-14.7-1.9-19.5c-1.3-4.8-3.4-8.9-6.3-12.5c-5.8-6.7-14-10.1-24.6-10.1c-27.5,0-41.3,21.8-41.3,65.3v27.3l0.2,12.6
			c0,7.7,0.5,13.4,1.4,17c0.9,3.6,2.7,6.6,5.3,9c3.2,3.1,9,5.4,17.6,7v3.6h-75.5v-3.6c6.8-0.9,11.7-2.2,14.7-3.8
			c3-1.7,5.4-4.5,7.2-8.5c1.3-2.6,2.1-6.6,2.7-11.9c0.5-5.3,0.8-13,0.8-23V429.5c0-11.6-0.3-19.8-0.9-24.6
			c-0.6-4.8-1.8-8.7-3.8-11.6c-1.9-3.2-4.3-5.5-7-6.8c-2.7-1.4-6.7-2.2-11.8-2.6v-3.8L855,374z"/>
	</g>
	<g>
		<path d="M306.5,670.1h6.7V720h-6.7V670.1z"/>
		<path d="M336.7,668.1l36.9,37.9v-35.9h6.8v52.2l-36.9-37.8V720h-6.8V668.1z"/>
		<path d="M403.5,670.1h12.1c9.6,0,16.7,2.5,21.4,7.6c4.7,5.1,7,10.8,7,17.4c0,6.6-2.4,12.4-7.2,17.4c-4.8,5-11.9,7.6-21.1,7.6
			h-12.2V670.1z M410.3,676.7v36.5h0.4c5.1,0,8.9-0.2,11.4-0.7c2.6-0.5,5-1.5,7.3-3c2.3-1.5,4.1-3.6,5.5-6.1c1.4-2.5,2-5.3,2-8.4
			c0-3.8-1.1-7.3-3.3-10.4c-2.2-3.1-4.8-5.2-7.8-6.3c-3-1.1-7.1-1.6-12.2-1.6H410.3z"/>
		<path d="M462.6,694.7c0-7.2,2.7-13.4,8.1-18.5c5.4-5.1,12-7.7,19.6-7.7c7.4,0,13.9,2.6,19.2,7.8c5.4,5.2,8.1,11.3,8.1,18.5
			c0,7.5-2.7,13.9-8,19.1c-5.3,5.2-11.8,7.8-19.6,7.8c-7.6,0-14.1-2.6-19.5-7.9C465.3,708.5,462.6,702.2,462.6,694.7z M510.4,695
			c0-5.5-2-10.1-6-13.9c-4-3.8-8.9-5.7-14.6-5.7c-5.5,0-10.2,1.9-14.2,5.8c-3.9,3.8-5.9,8.4-5.9,13.8c0,5.5,2,10.1,6.1,13.8
			c4,3.8,9,5.7,14.8,5.7c5.4,0,10-1.9,13.9-5.8C508.4,704.9,510.4,700.3,510.4,695z"/>
		<path d="M538.9,668.1l36.9,37.9v-35.9h6.8v52.2l-36.9-37.8V720h-6.8V668.1z"/>
		<path d="M605.1,670.1h27.7v6.8h-20.9v12.5h20.9v6.7h-20.9v17.2h20.9v6.7h-27.7V670.1z"/>
		<path d="M684.1,675.6l-5.5,4.4c-1.5-1.5-2.8-2.6-4-3.4s-2.9-1.1-5.1-1.1c-2.4,0-4.4,0.6-6,1.7c-1.5,1.1-2.3,2.5-2.3,4.3
			c0,1.5,0.7,2.8,2,4c1.3,1.2,3.6,2.4,6.8,3.8s5.7,2.7,7.5,3.8c1.8,1.2,3.3,2.5,4.4,3.9c1.1,1.4,2,2.9,2.6,4.5
			c0.6,1.6,0.8,3.3,0.8,5c0,4.1-1.5,7.7-4.5,10.6c-3,2.9-6.7,4.4-10.9,4.4c-4.2,0-7.9-1.1-11.1-3.4c-3.2-2.3-5.7-5.7-7.4-10.3
			l6.8-1.9c2.5,5.6,6.3,8.4,11.4,8.4c2.5,0,4.5-0.7,6.2-2.2c1.6-1.5,2.5-3.4,2.5-5.6c0-1.4-0.4-2.7-1.3-4.1
			c-0.9-1.4-1.9-2.5-3.2-3.4c-1.3-0.9-3.3-1.9-6.1-3c-2.8-1.1-4.9-2.2-6.5-3.1c-1.5-1-2.8-2.1-3.9-3.4c-1.1-1.3-1.9-2.6-2.4-3.9
			c-0.5-1.3-0.8-2.7-0.8-4.2c0-3.6,1.4-6.6,4.3-9.1c2.9-2.5,6.4-3.8,10.5-3.8c2.7,0,5.5,0.6,8.3,1.8
			C679.9,671.4,682.2,673.2,684.1,675.6z"/>
		<path d="M706.5,670.1h6.7V720h-6.7V670.1z"/>
		<path d="M755.6,668.1l23.6,51.8H772l-5.8-12.8h-21.2l-5.7,12.8h-7.1L755.6,668.1z M755.6,683.7l-8,17.8h16.1L755.6,683.7z"/>
	</g>
	<path class="st0" d="M714.3,450.4c0,0,4.1-19.7,22.6-27.9c18.4-8.1,44.1-9,44.1-9s-6,5.2-8,10.7s-1.5,13.3-7.6,20.7
		c-6.5,7.9-17.2,18.2-37.1,16.4c0,0,10.3-20.2,29.8-32.1C758.1,429.2,735.5,433.4,714.3,450.4z"/>
	<circle cx="462.2" cy="539.7" r="21.3"/>
</g>
</svg>
